<svg xmlns="http://www.w3.org/2000/svg" viewBox="0 0 132 64" width="132" height="64" fill="#E8E8E5" shape-rendering="crispEdges" preserveAspectRatio="xMidYMid meet"><path d="M26 0h1v1h-1zM28 0h3v1h-3zM32 0h55v1h-55zM88 0h7v1h-7zM96 0h1v1h-1zM98 0h1v1h-1zM100 0h1v1h-1zM102 0h1v1h-1zM104 0h1v1h-1zM27 1h1v1h-1zM29 1h1v1h-1zM31 1h1v1h-1zM33 1h1v1h-1zM35 1h1v1h-1zM37 1h1v1h-1zM39 1h3v1h-3zM43 1h1v1h-1zM45 1h1v1h-1zM47 1h11v1h-11zM59 1h1v1h-1zM61 1h1v1h-1zM63 1h7v1h-7zM71 1h1v1h-1zM73 1h1v1h-1zM75 1h3v1h-3zM79 1h3v1h-3zM83 1h1v1h-1zM85 1h1v1h-1zM87 1h1v1h-1zM89 1h1v1h-1zM91 1h1v1h-1zM93 1h1v1h-1zM95 1h1v1h-1zM97 1h1v1h-1zM99 1h1v1h-1zM101 1h1v1h-1zM105 1h1v1h-1zM26 2h3v1h-3zM30 2h1v1h-1zM32 2h1v1h-1zM34 2h11v1h-11zM46 2h39v1h-39zM86 2h1v1h-1zM88 2h1v1h-1zM90 2h3v1h-3zM94 2h1v1h-1zM96 2h1v1h-1zM98 2h1v1h-1zM100 2h1v1h-1zM102 2h1v1h-1zM104 2h1v1h-1zM27 3h1v1h-1zM29 3h1v1h-1zM31 3h1v1h-1zM33 3h1v1h-1zM35 3h1v1h-1zM37 3h1v1h-1zM39 3h1v1h-1zM41 3h1v1h-1zM43 3h1v1h-1zM45 3h1v1h-1zM47 3h1v1h-1zM49 3h7v1h-7zM57 3h1v1h-1zM59 3h1v1h-1zM61 3h7v1h-7zM69 3h1v1h-1zM71 3h1v1h-1zM73 3h1v1h-1zM75 3h1v1h-1zM77 3h3v1h-3zM81 3h1v1h-1zM83 3h1v1h-1zM85 3h1v1h-1zM87 3h1v1h-1zM89 3h1v1h-1zM91 3h1v1h-1zM93 3h1v1h-1zM95 3h1v1h-1zM99 3h1v1h-1zM26 4h1v1h-1zM28 4h3v1h-3zM32 4h3v1h-3zM36 4h47v1h-47zM84 4h3v1h-3zM88 4h3v1h-3zM92 4h3v1h-3zM96 4h1v1h-1zM98 4h1v1h-1zM100 4h1v1h-1zM102 4h1v1h-1zM104 4h1v1h-1zM27 5h1v1h-1zM29 5h1v1h-1zM31 5h1v1h-1zM33 5h1v1h-1zM35 5h1v1h-1zM37 5h1v1h-1zM39 5h3v1h-3zM43 5h1v1h-1zM45 5h1v1h-1zM47 5h1v1h-1zM49 5h1v1h-1zM51 5h7v1h-7zM59 5h1v1h-1zM61 5h1v1h-1zM63 5h7v1h-7zM71 5h1v1h-1zM73 5h1v1h-1zM75 5h3v1h-3zM79 5h3v1h-3zM83 5h1v1h-1zM85 5h1v1h-1zM87 5h1v1h-1zM89 5h1v1h-1zM91 5h1v1h-1zM93 5h1v1h-1zM95 5h1v1h-1zM97 5h1v1h-1zM101 5h1v1h-1zM105 5h1v1h-1zM26 6h1v1h-1zM28 6h1v1h-1zM30 6h1v1h-1zM32 6h1v1h-1zM34 6h11v1h-11zM46 6h27v1h-27zM74 6h11v1h-11zM86 6h3v1h-3zM90 6h3v1h-3zM94 6h1v1h-1zM96 6h1v1h-1zM98 6h1v1h-1zM100 6h1v1h-1zM102 6h1v1h-1zM104 6h1v1h-1zM27 7h1v1h-1zM29 7h1v1h-1zM31 7h1v1h-1zM33 7h1v1h-1zM35 7h1v1h-1zM37 7h1v1h-1zM39 7h1v1h-1zM41 7h1v1h-1zM43 7h1v1h-1zM45 7h1v1h-1zM47 7h1v1h-1zM49 7h7v1h-7zM57 7h1v1h-1zM59 7h1v1h-1zM61 7h3v1h-3zM65 7h3v1h-3zM69 7h1v1h-1zM71 7h1v1h-1zM73 7h1v1h-1zM75 7h1v1h-1zM77 7h3v1h-3zM81 7h1v1h-1zM83 7h1v1h-1zM85 7h1v1h-1zM87 7h1v1h-1zM89 7h1v1h-1zM91 7h1v1h-1zM93 7h1v1h-1zM95 7h1v1h-1zM99 7h1v1h-1zM103 7h1v1h-1zM26 8h1v1h-1zM28 8h3v1h-3zM32 8h55v1h-55zM88 8h7v1h-7zM96 8h1v1h-1zM98 8h1v1h-1zM100 8h1v1h-1zM102 8h1v1h-1zM104 8h1v1h-1zM29 9h1v1h-1zM33 9h1v1h-1zM35 9h1v1h-1zM37 9h1v1h-1zM39 9h1v1h-1zM41 9h1v1h-1zM43 9h1v1h-1zM45 9h1v1h-1zM49 9h1v1h-1zM51 9h1v1h-1zM53 9h1v1h-1zM55 9h1v1h-1zM57 9h1v1h-1zM59 9h1v1h-1zM61 9h1v1h-1zM63 9h1v1h-1zM65 9h1v1h-1zM67 9h1v1h-1zM69 9h1v1h-1zM73 9h1v1h-1zM75 9h1v1h-1zM77 9h1v1h-1zM79 9h1v1h-1zM81 9h1v1h-1zM83 9h1v1h-1zM85 9h1v1h-1zM89 9h1v1h-1zM91 9h1v1h-1zM93 9h1v1h-1zM97 9h1v1h-1zM101 9h1v1h-1zM105 9h1v1h-1zM26 10h1v1h-1zM28 10h1v1h-1zM30 10h1v1h-1zM32 10h1v1h-1zM34 10h1v1h-1zM36 10h1v1h-1zM38 10h1v1h-1zM40 10h1v1h-1zM42 10h1v1h-1zM44 10h1v1h-1zM46 10h1v1h-1zM48 10h1v1h-1zM50 10h3v1h-3zM54 10h1v1h-1zM56 10h1v1h-1zM58 10h3v1h-3zM62 10h1v1h-1zM64 10h1v1h-1zM66 10h3v1h-3zM70 10h1v1h-1zM72 10h1v1h-1zM74 10h1v1h-1zM76 10h1v1h-1zM78 10h1v1h-1zM80 10h1v1h-1zM82 10h1v1h-1zM84 10h1v1h-1zM86 10h1v1h-1zM88 10h1v1h-1zM90 10h1v1h-1zM92 10h1v1h-1zM94 10h1v1h-1zM96 10h1v1h-1zM98 10h1v1h-1zM100 10h1v1h-1zM102 10h1v1h-1zM104 10h1v1h-1zM27 11h1v1h-1zM29 11h1v1h-1zM31 11h1v1h-1zM33 11h3v1h-3zM37 11h3v1h-3zM41 11h35v1h-35zM77 11h3v1h-3zM81 11h3v1h-3zM85 11h1v1h-1zM87 11h1v1h-1zM89 11h1v1h-1zM91 11h1v1h-1zM93 11h1v1h-1zM95 11h1v1h-1zM97 11h1v1h-1zM99 11h1v1h-1zM101 11h1v1h-1zM103 11h1v1h-1zM105 11h1v1h-1zM26 12h73v1h-73zM100 12h1v1h-1zM102 12h1v1h-1zM104 12h1v1h-1zM27 13h1v1h-1zM29 13h1v1h-1zM31 13h3v1h-3zM35 13h47v1h-47zM83 13h3v1h-3zM87 13h1v1h-1zM89 13h1v1h-1zM91 13h1v1h-1zM93 13h1v1h-1zM95 13h1v1h-1zM97 13h1v1h-1zM99 13h1v1h-1zM101 13h1v1h-1zM103 13h1v1h-1zM105 13h1v1h-1zM26 14h67v1h-67zM94 14h3v1h-3zM98 14h1v1h-1zM100 14h1v1h-1zM102 14h1v1h-1zM104 14h1v1h-1zM25 15h1v1h-1zM27 15h1v1h-1zM29 15h1v1h-1zM31 15h1v1h-1zM33 15h1v1h-1zM35 15h1v1h-1zM37 15h3v1h-3zM41 15h39v1h-39zM81 15h3v1h-3zM85 15h3v1h-3zM89 15h1v1h-1zM91 15h1v1h-1zM93 15h1v1h-1zM95 15h1v1h-1zM97 15h1v1h-1zM99 15h1v1h-1zM101 15h1v1h-1zM103 15h1v1h-1zM25 16h74v1h-74zM100 16h3v1h-3zM104 16h1v1h-1zM106 16h1v1h-1zM25 17h1v1h-1zM27 17h1v1h-1zM29 17h1v1h-1zM31 17h3v1h-3zM35 17h51v1h-51zM87 17h3v1h-3zM91 17h1v1h-1zM93 17h1v1h-1zM95 17h1v1h-1zM97 17h1v1h-1zM99 17h1v1h-1zM101 17h1v1h-1zM103 17h1v1h-1zM105 17h1v1h-1zM107 17h1v1h-1zM24 18h73v1h-73zM98 18h3v1h-3zM102 18h1v1h-1zM104 18h1v1h-1zM106 18h1v1h-1zM23 19h1v1h-1zM25 19h1v1h-1zM27 19h1v1h-1zM29 19h1v1h-1zM31 19h1v1h-1zM33 19h3v1h-3zM37 19h43v1h-43zM81 19h3v1h-3zM85 19h3v1h-3zM89 19h1v1h-1zM91 19h1v1h-1zM93 19h1v1h-1zM95 19h1v1h-1zM97 19h1v1h-1zM99 19h1v1h-1zM101 19h1v1h-1zM103 19h1v1h-1zM105 19h1v1h-1zM107 19h1v1h-1zM23 20h76v1h-76zM100 20h3v1h-3zM104 20h1v1h-1zM106 20h1v1h-1zM108 20h1v1h-1zM23 21h1v1h-1zM25 21h1v1h-1zM27 21h3v1h-3zM31 21h3v1h-3zM35 21h47v1h-47zM83 21h3v1h-3zM87 21h3v1h-3zM91 21h1v1h-1zM93 21h1v1h-1zM95 21h1v1h-1zM97 21h1v1h-1zM99 21h1v1h-1zM101 21h1v1h-1zM103 21h1v1h-1zM105 21h1v1h-1zM107 21h1v1h-1zM109 21h1v1h-1zM22 22h75v1h-75zM98 22h3v1h-3zM102 22h1v1h-1zM104 22h1v1h-1zM106 22h1v1h-1zM108 22h1v1h-1zM110 22h1v1h-1zM21 23h1v1h-1zM23 23h1v1h-1zM25 23h1v1h-1zM27 23h1v1h-1zM29 23h3v1h-3zM33 23h3v1h-3zM37 23h3v1h-3zM41 23h39v1h-39zM81 23h3v1h-3zM85 23h3v1h-3zM89 23h1v1h-1zM91 23h1v1h-1zM93 23h1v1h-1zM95 23h1v1h-1zM97 23h1v1h-1zM99 23h1v1h-1zM101 23h1v1h-1zM103 23h1v1h-1zM105 23h1v1h-1zM107 23h1v1h-1zM109 23h1v1h-1zM20 24h1v1h-1zM22 24h1v1h-1zM24 24h3v1h-3zM28 24h1v1h-1zM30 24h1v1h-1zM32 24h3v1h-3zM36 24h3v1h-3zM40 24h3v1h-3zM44 24h3v1h-3zM48 24h3v1h-3zM52 24h3v1h-3zM56 24h3v1h-3zM60 24h3v1h-3zM64 24h3v1h-3zM68 24h3v1h-3zM72 24h3v1h-3zM76 24h3v1h-3zM80 24h3v1h-3zM84 24h3v1h-3zM88 24h3v1h-3zM92 24h1v1h-1zM94 24h1v1h-1zM96 24h1v1h-1zM98 24h1v1h-1zM100 24h1v1h-1zM102 24h1v1h-1zM104 24h1v1h-1zM106 24h1v1h-1zM108 24h1v1h-1zM110 24h1v1h-1zM19 25h1v1h-1zM21 25h1v1h-1zM23 25h1v1h-1zM25 25h1v1h-1zM27 25h1v1h-1zM29 25h1v1h-1zM31 25h1v1h-1zM33 25h1v1h-1zM35 25h1v1h-1zM37 25h1v1h-1zM39 25h1v1h-1zM41 25h1v1h-1zM43 25h1v1h-1zM45 25h1v1h-1zM47 25h1v1h-1zM49 25h1v1h-1zM51 25h1v1h-1zM53 25h1v1h-1zM55 25h1v1h-1zM57 25h1v1h-1zM59 25h1v1h-1zM61 25h1v1h-1zM63 25h1v1h-1zM65 25h1v1h-1zM67 25h1v1h-1zM69 25h1v1h-1zM71 25h1v1h-1zM73 25h1v1h-1zM75 25h1v1h-1zM77 25h1v1h-1zM79 25h1v1h-1zM81 25h1v1h-1zM83 25h1v1h-1zM85 25h1v1h-1zM87 25h1v1h-1zM89 25h1v1h-1zM91 25h1v1h-1zM93 25h1v1h-1zM95 25h1v1h-1zM97 25h1v1h-1zM99 25h1v1h-1zM101 25h1v1h-1zM103 25h1v1h-1zM105 25h1v1h-1zM107 25h1v1h-1zM109 25h1v1h-1zM111 25h1v1h-1zM18 26h83v1h-83zM102 26h3v1h-3zM106 26h1v1h-1zM108 26h1v1h-1zM110 26h1v1h-1zM112 26h1v1h-1zM19 27h1v1h-1zM21 27h1v1h-1zM23 27h1v1h-1zM25 27h3v1h-3zM29 27h3v1h-3zM33 27h3v1h-3zM37 27h47v1h-47zM85 27h3v1h-3zM89 27h3v1h-3zM93 27h1v1h-1zM95 27h1v1h-1zM97 27h1v1h-1zM99 27h1v1h-1zM101 27h1v1h-1zM103 27h1v1h-1zM105 27h1v1h-1zM107 27h1v1h-1zM109 27h1v1h-1zM111 27h1v1h-1zM113 27h1v1h-1zM17 28h86v1h-86zM104 28h3v1h-3zM108 28h1v1h-1zM110 28h1v1h-1zM112 28h1v1h-1zM114 28h1v1h-1zM17 29h1v1h-1zM19 29h1v1h-1zM21 29h1v1h-1zM23 29h3v1h-3zM27 29h63v1h-63zM91 29h3v1h-3zM95 29h1v1h-1zM97 29h1v1h-1zM99 29h1v1h-1zM101 29h1v1h-1zM103 29h1v1h-1zM105 29h1v1h-1zM107 29h1v1h-1zM109 29h1v1h-1zM111 29h1v1h-1zM113 29h1v1h-1zM115 29h1v1h-1zM15 30h2v1h-2zM18 30h83v1h-83zM102 30h3v1h-3zM106 30h1v1h-1zM108 30h1v1h-1zM110 30h1v1h-1zM112 30h1v1h-1zM114 30h1v1h-1zM116 30h1v1h-1zM15 31h1v1h-1zM17 31h1v1h-1zM19 31h1v1h-1zM21 31h1v1h-1zM23 31h1v1h-1zM25 31h1v1h-1zM27 31h1v1h-1zM29 31h3v1h-3zM33 31h47v1h-47zM81 31h3v1h-3zM85 31h3v1h-3zM89 31h1v1h-1zM91 31h1v1h-1zM93 31h1v1h-1zM95 31h1v1h-1zM97 31h1v1h-1zM99 31h1v1h-1zM101 31h1v1h-1zM103 31h1v1h-1zM105 31h1v1h-1zM107 31h1v1h-1zM109 31h1v1h-1zM111 31h1v1h-1zM115 31h1v1h-1zM117 31h1v1h-1zM14 32h93v1h-93zM108 32h3v1h-3zM112 32h1v1h-1zM114 32h1v1h-1zM116 32h1v1h-1zM13 33h1v1h-1zM15 33h1v1h-1zM17 33h1v1h-1zM19 33h3v1h-3zM23 33h3v1h-3zM27 33h59v1h-59zM87 33h3v1h-3zM91 33h3v1h-3zM95 33h3v1h-3zM99 33h1v1h-1zM101 33h1v1h-1zM103 33h1v1h-1zM105 33h1v1h-1zM107 33h1v1h-1zM109 33h1v1h-1zM111 33h1v1h-1zM113 33h1v1h-1zM115 33h1v1h-1zM117 33h1v1h-1zM12 34h1v1h-1zM14 34h87v1h-87zM102 34h3v1h-3zM106 34h3v1h-3zM110 34h1v1h-1zM112 34h1v1h-1zM114 34h1v1h-1zM116 34h1v1h-1zM118 34h1v1h-1zM13 35h1v1h-1zM15 35h1v1h-1zM17 35h1v1h-1zM19 35h1v1h-1zM21 35h1v1h-1zM23 35h1v1h-1zM25 35h3v1h-3zM29 35h55v1h-55zM85 35h3v1h-3zM89 35h3v1h-3zM93 35h1v1h-1zM95 35h1v1h-1zM97 35h1v1h-1zM99 35h1v1h-1zM101 35h1v1h-1zM103 35h1v1h-1zM105 35h1v1h-1zM107 35h1v1h-1zM109 35h1v1h-1zM111 35h1v1h-1zM113 35h1v1h-1zM115 35h1v1h-1zM119 35h1v1h-1zM11 36h96v1h-96zM108 36h3v1h-3zM112 36h1v1h-1zM114 36h1v1h-1zM116 36h1v1h-1zM118 36h1v1h-1zM120 36h1v1h-1zM11 37h1v1h-1zM13 37h1v1h-1zM15 37h1v1h-1zM17 37h1v1h-1zM19 37h3v1h-3zM23 37h3v1h-3zM27 37h63v1h-63zM91 37h3v1h-3zM95 37h3v1h-3zM99 37h1v1h-1zM101 37h1v1h-1zM103 37h1v1h-1zM105 37h1v1h-1zM107 37h1v1h-1zM109 37h1v1h-1zM111 37h1v1h-1zM113 37h1v1h-1zM115 37h1v1h-1zM117 37h1v1h-1zM119 37h1v1h-1zM10 38h1v1h-1zM12 38h1v1h-1zM14 38h1v1h-1zM16 38h1v1h-1zM18 38h1v1h-1zM20 38h1v1h-1zM22 38h1v1h-1zM24 38h1v1h-1zM26 38h1v1h-1zM28 38h1v1h-1zM30 38h1v1h-1zM32 38h1v1h-1zM34 38h1v1h-1zM36 38h1v1h-1zM38 38h1v1h-1zM40 38h1v1h-1zM42 38h1v1h-1zM44 38h1v1h-1zM46 38h1v1h-1zM48 38h1v1h-1zM50 38h1v1h-1zM52 38h1v1h-1zM54 38h1v1h-1zM56 38h1v1h-1zM58 38h1v1h-1zM60 38h1v1h-1zM62 38h1v1h-1zM64 38h1v1h-1zM66 38h1v1h-1zM68 38h1v1h-1zM70 38h1v1h-1zM72 38h1v1h-1zM74 38h1v1h-1zM76 38h1v1h-1zM78 38h1v1h-1zM80 38h1v1h-1zM82 38h1v1h-1zM84 38h1v1h-1zM86 38h1v1h-1zM88 38h1v1h-1zM90 38h1v1h-1zM92 38h1v1h-1zM94 38h1v1h-1zM96 38h1v1h-1zM98 38h1v1h-1zM100 38h1v1h-1zM102 38h1v1h-1zM104 38h1v1h-1zM106 38h1v1h-1zM108 38h1v1h-1zM110 38h1v1h-1zM112 38h1v1h-1zM114 38h1v1h-1zM116 38h1v1h-1zM118 38h1v1h-1zM120 38h1v1h-1zM11 39h1v1h-1zM13 39h1v1h-1zM15 39h1v1h-1zM17 39h1v1h-1zM19 39h1v1h-1zM21 39h1v1h-1zM23 39h1v1h-1zM25 39h1v1h-1zM27 39h1v1h-1zM29 39h1v1h-1zM31 39h1v1h-1zM33 39h1v1h-1zM35 39h1v1h-1zM37 39h1v1h-1zM39 39h1v1h-1zM41 39h1v1h-1zM43 39h1v1h-1zM45 39h1v1h-1zM47 39h1v1h-1zM49 39h1v1h-1zM51 39h1v1h-1zM53 39h1v1h-1zM55 39h1v1h-1zM57 39h1v1h-1zM59 39h1v1h-1zM61 39h1v1h-1zM63 39h1v1h-1zM65 39h1v1h-1zM67 39h1v1h-1zM69 39h1v1h-1zM71 39h1v1h-1zM73 39h1v1h-1zM75 39h1v1h-1zM77 39h1v1h-1zM79 39h1v1h-1zM81 39h1v1h-1zM83 39h1v1h-1zM85 39h1v1h-1zM87 39h1v1h-1zM89 39h1v1h-1zM91 39h1v1h-1zM93 39h1v1h-1zM95 39h1v1h-1zM97 39h1v1h-1zM99 39h1v1h-1zM101 39h1v1h-1zM103 39h1v1h-1zM105 39h1v1h-1zM107 39h1v1h-1zM109 39h1v1h-1zM111 39h1v1h-1zM115 39h1v1h-1zM119 39h1v1h-1zM9 40h102v1h-102zM112 40h3v1h-3zM116 40h1v1h-1zM118 40h1v1h-1zM120 40h1v1h-1zM122 40h1v1h-1zM9 41h1v1h-1zM11 41h1v1h-1zM13 41h1v1h-1zM15 41h3v1h-3zM19 41h3v1h-3zM23 41h71v1h-71zM95 41h3v1h-3zM99 41h1v1h-1zM101 41h1v1h-1zM103 41h1v1h-1zM105 41h1v1h-1zM107 41h1v1h-1zM109 41h1v1h-1zM111 41h1v1h-1zM113 41h1v1h-1zM115 41h1v1h-1zM117 41h1v1h-1zM119 41h1v1h-1zM121 41h1v1h-1zM8 42h101v1h-101zM110 42h3v1h-3zM114 42h1v1h-1zM116 42h1v1h-1zM118 42h1v1h-1zM120 42h1v1h-1zM122 42h1v1h-1zM9 43h1v1h-1zM11 43h1v1h-1zM13 43h1v1h-1zM15 43h1v1h-1zM17 43h3v1h-3zM21 43h3v1h-3zM25 43h3v1h-3zM29 43h55v1h-55zM85 43h3v1h-3zM89 43h3v1h-3zM93 43h1v1h-1zM95 43h1v1h-1zM97 43h1v1h-1zM99 43h1v1h-1zM101 43h1v1h-1zM103 43h1v1h-1zM105 43h1v1h-1zM107 43h1v1h-1zM109 43h1v1h-1zM111 43h1v1h-1zM113 43h1v1h-1zM115 43h1v1h-1zM117 43h1v1h-1zM119 43h1v1h-1zM121 43h1v1h-1zM123 43h1v1h-1zM8 44h99v1h-99zM108 44h3v1h-3zM112 44h3v1h-3zM116 44h1v1h-1zM118 44h1v1h-1zM120 44h1v1h-1zM122 44h1v1h-1zM9 45h1v1h-1zM11 45h1v1h-1zM13 45h1v1h-1zM15 45h1v1h-1zM17 45h1v1h-1zM19 45h1v1h-1zM21 45h1v1h-1zM23 45h1v1h-1zM25 45h1v1h-1zM27 45h1v1h-1zM29 45h1v1h-1zM31 45h1v1h-1zM33 45h1v1h-1zM35 45h1v1h-1zM37 45h1v1h-1zM39 45h1v1h-1zM41 45h1v1h-1zM43 45h1v1h-1zM45 45h1v1h-1zM47 45h1v1h-1zM49 45h1v1h-1zM51 45h1v1h-1zM53 45h1v1h-1zM55 45h1v1h-1zM57 45h1v1h-1zM59 45h1v1h-1zM61 45h1v1h-1zM63 45h1v1h-1zM65 45h1v1h-1zM67 45h1v1h-1zM69 45h1v1h-1zM71 45h1v1h-1zM73 45h1v1h-1zM75 45h1v1h-1zM77 45h1v1h-1zM79 45h1v1h-1zM81 45h1v1h-1zM83 45h1v1h-1zM85 45h1v1h-1zM87 45h1v1h-1zM89 45h1v1h-1zM91 45h1v1h-1zM93 45h1v1h-1zM95 45h1v1h-1zM97 45h1v1h-1zM99 45h1v1h-1zM101 45h1v1h-1zM103 45h1v1h-1zM105 45h1v1h-1zM107 45h1v1h-1zM109 45h1v1h-1zM111 45h1v1h-1zM113 45h1v1h-1zM115 45h1v1h-1zM117 45h1v1h-1zM119 45h1v1h-1zM121 45h1v1h-1zM123 45h1v1h-1zM6 46h1v1h-1zM8 46h1v1h-1zM10 46h1v1h-1zM12 46h1v1h-1zM14 46h1v1h-1zM16 46h1v1h-1zM18 46h1v1h-1zM20 46h1v1h-1zM22 46h1v1h-1zM24 46h1v1h-1zM26 46h1v1h-1zM28 46h1v1h-1zM30 46h1v1h-1zM32 46h1v1h-1zM34 46h1v1h-1zM36 46h1v1h-1zM38 46h1v1h-1zM40 46h1v1h-1zM42 46h1v1h-1zM44 46h1v1h-1zM46 46h1v1h-1zM48 46h1v1h-1zM50 46h1v1h-1zM52 46h1v1h-1zM54 46h1v1h-1zM56 46h1v1h-1zM58 46h1v1h-1zM60 46h1v1h-1zM62 46h1v1h-1zM64 46h1v1h-1zM66 46h1v1h-1zM68 46h1v1h-1zM70 46h1v1h-1zM72 46h1v1h-1zM74 46h1v1h-1zM76 46h1v1h-1zM78 46h1v1h-1zM80 46h1v1h-1zM82 46h1v1h-1zM84 46h1v1h-1zM86 46h1v1h-1zM88 46h1v1h-1zM90 46h1v1h-1zM92 46h1v1h-1zM94 46h1v1h-1zM96 46h1v1h-1zM98 46h1v1h-1zM100 46h1v1h-1zM102 46h1v1h-1zM104 46h1v1h-1zM106 46h1v1h-1zM108 46h1v1h-1zM110 46h1v1h-1zM112 46h1v1h-1zM114 46h1v1h-1zM116 46h1v1h-1zM118 46h1v1h-1zM120 46h1v1h-1zM122 46h1v1h-1zM124 46h1v1h-1zM126 46h1v1h-1zM5 47h1v1h-1zM7 47h1v1h-1zM9 47h1v1h-1zM11 47h1v1h-1zM13 47h1v1h-1zM15 47h1v1h-1zM17 47h1v1h-1zM19 47h1v1h-1zM21 47h3v1h-3zM25 47h3v1h-3zM29 47h3v1h-3zM33 47h47v1h-47zM81 47h3v1h-3zM85 47h3v1h-3zM89 47h3v1h-3zM93 47h3v1h-3zM97 47h1v1h-1zM99 47h1v1h-1zM101 47h1v1h-1zM103 47h1v1h-1zM105 47h1v1h-1zM107 47h1v1h-1zM109 47h1v1h-1zM111 47h1v1h-1zM113 47h1v1h-1zM115 47h1v1h-1zM117 47h1v1h-1zM119 47h1v1h-1zM123 47h1v1h-1zM125 47h1v1h-1zM5 48h106v1h-106zM112 48h3v1h-3zM116 48h3v1h-3zM120 48h1v1h-1zM122 48h1v1h-1zM124 48h1v1h-1zM126 48h1v1h-1zM5 49h1v1h-1zM7 49h1v1h-1zM9 49h1v1h-1zM11 49h1v1h-1zM13 49h1v1h-1zM15 49h3v1h-3zM19 49h3v1h-3zM23 49h71v1h-71zM95 49h3v1h-3zM99 49h3v1h-3zM103 49h1v1h-1zM105 49h1v1h-1zM107 49h1v1h-1zM109 49h1v1h-1zM111 49h1v1h-1zM113 49h1v1h-1zM115 49h1v1h-1zM117 49h1v1h-1zM119 49h1v1h-1zM121 49h1v1h-1zM123 49h1v1h-1zM125 49h1v1h-1zM6 50h103v1h-103zM110 50h3v1h-3zM114 50h3v1h-3zM118 50h1v1h-1zM120 50h1v1h-1zM122 50h1v1h-1zM124 50h1v1h-1zM126 50h1v1h-1zM5 51h1v1h-1zM7 51h1v1h-1zM9 51h1v1h-1zM11 51h1v1h-1zM13 51h1v1h-1zM15 51h1v1h-1zM17 51h3v1h-3zM21 51h3v1h-3zM25 51h3v1h-3zM29 51h55v1h-55zM85 51h3v1h-3zM89 51h3v1h-3zM93 51h3v1h-3zM97 51h1v1h-1zM99 51h1v1h-1zM101 51h1v1h-1zM103 51h1v1h-1zM105 51h1v1h-1zM107 51h1v1h-1zM109 51h1v1h-1zM111 51h1v1h-1zM113 51h1v1h-1zM115 51h1v1h-1zM117 51h1v1h-1zM119 51h1v1h-1zM121 51h1v1h-1zM123 51h1v1h-1zM5 52h110v1h-110zM116 52h3v1h-3zM120 52h1v1h-1zM122 52h1v1h-1zM124 52h1v1h-1zM126 52h1v1h-1zM5 53h1v1h-1zM7 53h1v1h-1zM9 53h1v1h-1zM11 53h3v1h-3zM15 53h3v1h-3zM19 53h3v1h-3zM23 53h67v1h-67zM91 53h3v1h-3zM95 53h3v1h-3zM99 53h3v1h-3zM103 53h1v1h-1zM105 53h1v1h-1zM107 53h1v1h-1zM109 53h1v1h-1zM111 53h1v1h-1zM113 53h1v1h-1zM115 53h1v1h-1zM117 53h1v1h-1zM119 53h1v1h-1zM121 53h1v1h-1zM123 53h1v1h-1zM125 53h1v1h-1zM6 54h99v1h-99zM106 54h3v1h-3zM110 54h3v1h-3zM114 54h1v1h-1zM116 54h1v1h-1zM118 54h1v1h-1zM120 54h1v1h-1zM122 54h1v1h-1zM124 54h1v1h-1zM126 54h1v1h-1zM5 55h1v1h-1zM7 55h1v1h-1zM9 55h1v1h-1zM11 55h1v1h-1zM13 55h1v1h-1zM15 55h1v1h-1zM17 55h1v1h-1zM19 55h1v1h-1zM21 55h3v1h-3zM25 55h3v1h-3zM29 55h3v1h-3zM33 55h47v1h-47zM81 55h3v1h-3zM85 55h3v1h-3zM89 55h3v1h-3zM93 55h3v1h-3zM97 55h1v1h-1zM99 55h1v1h-1zM101 55h1v1h-1zM103 55h1v1h-1zM105 55h1v1h-1zM107 55h1v1h-1zM109 55h1v1h-1zM111 55h1v1h-1zM113 55h1v1h-1zM115 55h1v1h-1zM117 55h1v1h-1zM119 55h1v1h-1zM123 55h1v1h-1zM125 55h1v1h-1zM5 56h106v1h-106zM112 56h3v1h-3zM116 56h3v1h-3zM120 56h1v1h-1zM122 56h1v1h-1zM124 56h1v1h-1zM126 56h1v1h-1zM5 57h1v1h-1zM7 57h1v1h-1zM9 57h1v1h-1zM11 57h1v1h-1zM13 57h1v1h-1zM15 57h3v1h-3zM19 57h3v1h-3zM23 57h71v1h-71zM95 57h3v1h-3zM99 57h3v1h-3zM103 57h1v1h-1zM105 57h1v1h-1zM107 57h1v1h-1zM109 57h1v1h-1zM111 57h1v1h-1zM113 57h1v1h-1zM115 57h1v1h-1zM117 57h1v1h-1zM119 57h1v1h-1zM121 57h1v1h-1zM123 57h1v1h-1zM125 57h1v1h-1zM6 58h103v1h-103zM110 58h3v1h-3zM114 58h3v1h-3zM118 58h1v1h-1zM120 58h1v1h-1zM122 58h1v1h-1zM124 58h1v1h-1zM126 58h1v1h-1zM5 59h1v1h-1zM7 59h1v1h-1zM9 59h1v1h-1zM11 59h1v1h-1zM13 59h1v1h-1zM15 59h1v1h-1zM17 59h3v1h-3zM21 59h3v1h-3zM25 59h3v1h-3zM29 59h55v1h-55zM85 59h3v1h-3zM89 59h3v1h-3zM93 59h3v1h-3zM97 59h1v1h-1zM99 59h1v1h-1zM101 59h1v1h-1zM103 59h1v1h-1zM105 59h1v1h-1zM107 59h1v1h-1zM109 59h1v1h-1zM111 59h1v1h-1zM113 59h1v1h-1zM115 59h1v1h-1zM117 59h1v1h-1zM119 59h1v1h-1zM121 59h1v1h-1zM123 59h1v1h-1zM5 60h110v1h-110zM116 60h3v1h-3zM120 60h1v1h-1zM122 60h1v1h-1zM124 60h1v1h-1zM126 60h1v1h-1zM5 61h1v1h-1zM7 61h1v1h-1zM9 61h1v1h-1zM11 61h3v1h-3zM15 61h3v1h-3zM19 61h3v1h-3zM23 61h67v1h-67zM91 61h3v1h-3zM95 61h3v1h-3zM99 61h3v1h-3zM103 61h1v1h-1zM105 61h1v1h-1zM107 61h1v1h-1zM109 61h1v1h-1zM111 61h1v1h-1zM113 61h1v1h-1zM115 61h1v1h-1zM117 61h1v1h-1zM119 61h1v1h-1zM121 61h1v1h-1zM123 61h1v1h-1zM125 61h1v1h-1zM6 62h99v1h-99zM106 62h3v1h-3zM110 62h3v1h-3zM114 62h1v1h-1zM116 62h1v1h-1zM118 62h1v1h-1zM120 62h1v1h-1zM122 62h1v1h-1zM124 62h1v1h-1zM126 62h1v1h-1zM5 63h1v1h-1zM7 63h1v1h-1zM9 63h1v1h-1zM11 63h1v1h-1zM13 63h1v1h-1zM15 63h1v1h-1zM17 63h1v1h-1zM19 63h1v1h-1zM21 63h3v1h-3zM25 63h3v1h-3zM29 63h3v1h-3zM33 63h47v1h-47zM81 63h3v1h-3zM85 63h3v1h-3zM89 63h3v1h-3zM93 63h3v1h-3zM97 63h1v1h-1zM99 63h1v1h-1zM101 63h1v1h-1zM103 63h1v1h-1zM105 63h1v1h-1zM107 63h1v1h-1zM109 63h1v1h-1zM111 63h1v1h-1zM113 63h1v1h-1zM115 63h1v1h-1zM117 63h1v1h-1zM119 63h1v1h-1zM123 63h1v1h-1zM125 63h1v1h-1z"/></svg>